<svg width="372" height="277" viewBox="0 0 372 277" fill="none" xmlns="http://www.w3.org/2000/svg">
<path d="M189.232 10.4563C168.454 17.8104 127.039 54.9473 89.3222 50.659C54.0129 53.4732 12.0431 94.6407 22.3149 117.797C35.1547 146.743 6.26526 170.061 0.647866 199.811C-4.96952 229.561 26.7285 251.672 65.2478 263.331C103.767 274.99 144.215 253.28 170.373 253.28C196.454 253.28 257.145 277 283.523 277C315.623 277 359.759 244.034 369.389 215.49C379.019 186.946 359.759 145.939 348.123 103.325C336.487 60.7097 331.271 29.7536 310.005 22.1151C288.74 14.4766 263.06 -15.6754 189.232 10.4563Z" fill="#D4864E"/>
</svg>
