<svg width="175" height="179" viewBox="0 0 175 179" fill="none" xmlns="http://www.w3.org/2000/svg">
<path d="M2.25636 31.1252C-1.83013 26.2751 0.553658 21.0209 2.25636 19C4.88781 19 11.4509 19.7462 16.6519 22.7308C23.1532 26.4617 18.5094 31.1252 16.6519 35.7888C14.7944 40.4524 7.36447 37.1879 2.25636 31.1252Z" fill="#D4864E"/>
<path d="M27.2564 12.1252C23.1699 7.27515 25.5537 2.02087 27.2564 0C29.8878 0 36.4509 0.746169 41.6519 3.73085C48.1532 7.46169 43.5094 12.1252 41.6519 16.7888C39.7944 21.4524 32.3645 18.1879 27.2564 12.1252Z" fill="#D4864E"/>
<path d="M44.2564 47.1252C40.1699 42.2751 42.5537 37.0209 44.2564 35C46.8878 35 53.4509 35.7462 58.6519 38.7308C65.1532 42.4617 60.5094 47.1252 58.6519 51.7888C56.7944 56.4524 49.3645 53.1879 44.2564 47.1252Z" fill="#D4864E"/>
<path d="M22.2564 66.1252C18.1699 61.2751 20.5537 56.0209 22.2564 54C24.8878 54 31.4509 54.7462 36.6519 57.7308C43.1532 61.4617 38.5094 66.1252 36.6519 70.7888C34.7944 75.4524 27.3645 72.1879 22.2564 66.1252Z" fill="#D4864E"/>
<path d="M24.2564 100.125C20.1699 95.2751 22.5537 90.0209 24.2564 88C26.8878 88 33.4509 88.7462 38.6519 91.7308C45.1532 95.4617 40.5094 100.125 38.6519 104.789C36.7944 109.452 29.3645 106.188 24.2564 100.125Z" fill="#D4864E"/>
<path d="M59.2564 81.1252C55.1699 76.2751 57.5537 71.0209 59.2564 69C61.8878 69 68.4509 69.7462 73.6519 72.7308C80.1532 76.4617 75.5094 81.1252 73.6519 85.7888C71.7944 90.4524 64.3645 87.1879 59.2564 81.1252Z" fill="#D4864E"/>
<path d="M87.2564 56.1252C83.1699 51.2751 85.5537 46.0209 87.2564 44C89.8878 44 96.4509 44.7462 101.652 47.7308C108.153 51.4617 103.509 56.1252 101.652 60.7888C99.7944 65.4524 92.3645 62.1879 87.2564 56.1252Z" fill="#D4864E"/>
<path d="M105.256 91.1252C101.17 86.2751 103.554 81.0209 105.256 79C107.888 79 114.451 79.7462 119.652 82.7308C126.153 86.4617 121.509 91.1252 119.652 95.7888C117.794 100.452 110.364 97.1879 105.256 91.1252Z" fill="#D4864E"/>
<path d="M73.2564 119.125C69.1699 114.275 71.5537 109.021 73.2564 107C75.8878 107 82.4509 107.746 87.6519 110.731C94.1532 114.462 89.5094 119.125 87.6519 123.789C85.7944 128.452 78.3645 125.188 73.2564 119.125Z" fill="#D4864E"/>
<path d="M81.2564 155.125C77.1699 150.275 79.5537 145.021 81.2564 143C83.8878 143 90.4509 143.746 95.6519 146.731C102.153 150.462 97.5094 155.125 95.6519 159.789C93.7944 164.452 86.3645 161.188 81.2564 155.125Z" fill="#D4864E"/>
<path d="M115.256 136.125C111.17 131.275 113.554 126.021 115.256 124C117.888 124 124.451 124.746 129.652 127.731C136.153 131.462 131.509 136.125 129.652 140.789C127.794 145.452 120.364 142.188 115.256 136.125Z" fill="#D4864E"/>
<path d="M147.256 100.125C143.17 95.2751 145.554 90.0209 147.256 88C149.888 88 156.451 88.7462 161.652 91.7308C168.153 95.4617 163.509 100.125 161.652 104.789C159.794 109.452 152.364 106.188 147.256 100.125Z" fill="#D4864E"/>
<path d="M157.256 139.125C153.17 134.275 155.554 129.021 157.256 127C159.888 127 166.451 127.746 171.652 130.731C178.153 134.462 173.509 139.125 171.652 143.789C169.794 148.452 162.364 145.188 157.256 139.125Z" fill="#D4864E"/>
<path d="M132.256 172.125C128.17 167.275 130.554 162.021 132.256 160C134.888 160 141.451 160.746 146.652 163.731C153.153 167.462 148.509 172.125 146.652 176.789C144.794 181.452 137.364 178.188 132.256 172.125Z" fill="#D4864E"/>
<path d="M37.2564 146.125C33.1699 141.275 35.5537 136.021 37.2564 134C39.8878 134 46.4509 134.746 51.6519 137.731C58.1532 141.462 53.5094 146.125 51.6519 150.789C49.7944 155.452 42.3645 152.188 37.2564 146.125Z" fill="#D4864E"/>
<path d="M81.2564 12.1252C77.1699 7.27515 79.5537 2.02087 81.2564 0C83.8878 0 90.4509 0.746169 95.6519 3.73085C102.153 7.46169 97.5094 12.1252 95.6519 16.7888C93.7944 21.4524 86.3645 18.1879 81.2564 12.1252Z" fill="#D4864E"/>
</svg>
