<svg width="60" height="62" viewBox="0 0 60 62" fill="none" xmlns="http://www.w3.org/2000/svg">
<circle cx="24.5" cy="24.5" r="24.5" fill="#D4864E"/>
<path d="M60 24H22.5294C23.5374 25.1601 25.4744 28.3102 25.6848 30.0236C25.9478 32.1653 25.9478 40.4645 24.3701 45.0157C22.7923 49.5668 21.2146 56.2597 21.0832 57.4644C20.9517 58.6692 20.8202 60.5432 22.0035 60.9447C23.1868 61.3463 26.3422 59.4723 28.1828 58.1337C30.0235 56.7951 35.9399 52.5117 39.2268 49.0314C42.5137 45.5511 49.8764 35.7795 50.9282 34.3071C51.98 32.8346 54.478 28.7403 55.3983 27.9371C56.2032 27.2348 59.3426 25.6615 60 24Z" fill="#05615B"/>
<path d="M0 24H60" stroke="#EAD1A0" stroke-width="4"/>
</svg>
