<svg width="68" height="352" viewBox="0 0 68 352" fill="none" xmlns="http://www.w3.org/2000/svg">
<path d="M56.7335 300.969C53.1807 326.337 42.4237 344.72 37.4893 350.74C36.9253 351.16 35.4592 352 34.1057 352C32.7523 352 31.1452 351.16 30.5107 350.74C25.5763 344.72 14.8193 326.337 11.2665 300.969C6.82551 269.258 6.19109 271.988 2.38453 232.717C-0.660711 201.301 -0.153177 160.546 0.481252 144.095C1.82057 113.994 5.2182 50.559 8.09427 37.6227C11.6893 21.4524 14.8615 13.8922 16.7647 10.9521C18.668 8.01206 22.4746 3.81195 26.9156 1.5019C30.4683 -0.346158 33.0483 0.0318634 34.1057 0.0318633C35.1631 0.0318632 37.5316 -0.346158 41.0844 1.50189C45.5254 3.81195 49.3319 8.01206 51.2352 10.9521C53.1385 13.8922 56.3106 21.4524 59.9057 37.6227C62.7817 50.559 66.1794 113.994 67.5187 144.095C68.1531 160.546 68.6607 201.301 65.6154 232.717C61.8089 271.988 61.1745 269.258 56.7335 300.969Z" fill="#05615B"/>
<line x1="35.5" x2="35.5" y2="352" stroke="#EAD1A0" stroke-width="3"/>
</svg>
