<svg width="1440" height="474" viewBox="0 0 1440 474" fill="none" xmlns="http://www.w3.org/2000/svg">
<path d="M1 1.5C34.1667 35 127.9 107.7 237.5 130.5C374.5 159 494 33.5 580 39.5C666 45.5 754.5 104.5 808 109C861.5 113.5 957.5 88.5 999 91C1040.5 93.5 1184.5 200 1297 210C1387 218 1430.83 189.667 1441.5 174.5" stroke="#EEFAF6" stroke-width="3"/>
<path d="M0 19C33.1667 52.5 126.9 125.2 236.5 148C373.5 176.5 493 51 579 57C665 63 753.5 122 807 126.5C860.5 131 956.5 106 998 108.5C1039.5 111 1183.5 217.5 1296 227.5C1386 235.5 1429.83 207.167 1440.5 192" stroke="#EEFAF6" stroke-width="3"/>
<path d="M0 70C33.1667 103.5 126.9 176.2 236.5 199C373.5 227.5 493 102 579 108C665 114 753.5 173 807 177.5C860.5 182 956.5 157 998 159.5C1039.5 162 1183.5 268.5 1296 278.5C1386 286.5 1429.83 258.167 1440.5 243" stroke="#EEFAF6" stroke-width="3"/>
<path d="M-1 87.5C32.1667 121 125.9 193.7 235.5 216.5C372.5 245 492 119.5 578 125.5C664 131.5 752.5 190.5 806 195C859.5 199.5 955.5 174.5 997 177C1038.5 179.5 1182.5 286 1295 296C1385 304 1428.83 275.667 1439.5 260.5" stroke="#EEFAF6" stroke-width="3"/>
<path d="M0 106C33.1667 139.5 126.9 212.2 236.5 235C373.5 263.5 493 138 579 144C665 150 753.5 209 807 213.5C860.5 218 956.5 193 998 195.5C1039.5 198 1183.5 304.5 1296 314.5C1386 322.5 1429.83 294.167 1440.5 279" stroke="#EEFAF6" stroke-width="3"/>
<path d="M-1 123.5C32.1667 157 125.9 229.7 235.5 252.5C372.5 281 492 155.5 578 161.5C664 167.5 752.5 226.5 806 231C859.5 235.5 955.5 210.5 997 213C1038.5 215.5 1182.5 322 1295 332C1385 340 1428.83 311.667 1439.5 296.5" stroke="#EEFAF6" stroke-width="3"/>
<path d="M1 35C34.1667 68.5 127.9 141.2 237.5 164C374.5 192.5 494 67 580 73C666 79 754.5 138 808 142.5C861.5 147 957.5 122 999 124.5C1040.5 127 1184.5 233.5 1297 243.5C1387 251.5 1430.83 223.167 1441.5 208" stroke="#EEFAF6" stroke-width="3"/>
<path d="M0 52.5C33.1667 86 126.9 158.7 236.5 181.5C373.5 210 493 84.5 579 90.5C665 96.5 753.5 155.5 807 160C860.5 164.5 956.5 139.5 998 142C1039.5 144.5 1183.5 251 1296 261C1386 269 1429.83 240.667 1440.5 225.5" stroke="#EEFAF6" stroke-width="3"/>
<path d="M-1 140C32.1667 173.5 125.9 246.2 235.5 269C372.5 297.5 492 172 578 178C664 184 752.5 243 806 247.5C859.5 252 955.5 227 997 229.5C1038.5 232 1182.5 338.5 1295 348.5C1385 356.5 1428.83 328.167 1439.5 313" stroke="#EEFAF6" stroke-width="3"/>
<path d="M-2 157.5C31.1667 191 124.9 263.7 234.5 286.5C371.5 315 491 189.5 577 195.5C663 201.5 751.5 260.5 805 265C858.5 269.5 954.5 244.5 996 247C1037.5 249.5 1181.5 356 1294 366C1384 374 1427.83 345.667 1438.5 330.5" stroke="#EEFAF6" stroke-width="3"/>
<path d="M-2 208.5C31.1667 242 124.9 314.7 234.5 337.5C371.5 366 491 240.5 577 246.5C663 252.5 751.5 311.5 805 316C858.5 320.5 954.5 295.5 996 298C1037.5 300.5 1181.5 407 1294 417C1384 425 1427.83 396.667 1438.5 381.5" stroke="#EEFAF6" stroke-width="3"/>
<path d="M-3 226C30.1667 259.5 123.9 332.2 233.5 355C370.5 383.5 490 258 576 264C662 270 750.5 329 804 333.5C857.5 338 953.5 313 995 315.5C1036.5 318 1180.5 424.5 1293 434.5C1383 442.5 1426.83 414.167 1437.5 399" stroke="#EEFAF6" stroke-width="3"/>
<path d="M-2 244.5C31.1667 278 124.9 350.7 234.5 373.5C371.5 402 491 276.5 577 282.5C663 288.5 751.5 347.5 805 352C858.5 356.5 954.5 331.5 996 334C1037.5 336.5 1181.5 443 1294 453C1384 461 1427.83 432.667 1438.5 417.5" stroke="#EEFAF6" stroke-width="3"/>
<path d="M-3 262C30.1667 295.5 123.9 368.2 233.5 391C370.5 419.5 490 294 576 300C662 306 750.5 365 804 369.5C857.5 374 953.5 349 995 351.5C1036.5 354 1180.5 460.5 1293 470.5C1383 478.5 1426.83 450.167 1437.5 435" stroke="#EEFAF6" stroke-width="3"/>
<path d="M-1 173.5C32.1667 207 125.9 279.7 235.5 302.5C372.5 331 492 205.5 578 211.5C664 217.5 752.5 276.5 806 281C859.5 285.5 955.5 260.5 997 263C1038.5 265.5 1182.5 372 1295 382C1385 390 1428.83 361.667 1439.5 346.5" stroke="#EEFAF6" stroke-width="3"/>
<path d="M-2 191C31.1667 224.5 124.9 297.2 234.5 320C371.5 348.5 491 223 577 229C663 235 751.5 294 805 298.5C858.5 303 954.5 278 996 280.5C1037.5 283 1181.5 389.5 1294 399.5C1384 407.5 1427.83 379.167 1438.5 364" stroke="#EEFAF6" stroke-width="3"/>
</svg>
